<svg width="24" height="24" viewBox="0 0 24 24" fill="none" xmlns="http://www.w3.org/2000/svg">
<path fill-rule="evenodd" clip-rule="evenodd" d="M14.81 8.62L22 9.24L16.55 13.97L18.18 21L12 17.27L5.82 21L7.46 13.97L2 9.24L9.19 8.63L12 2L14.81 8.62ZM12 6.1V15.4L15.77 17.68L14.77 13.4L18.09 10.52L13.71 10.14L12 6.1Z" fill="#FFC519"/>
<mask id="mask0" mask-type="alpha" maskUnits="userSpaceOnUse" x="2" y="2" width="20" height="19">
<path fill-rule="evenodd" clip-rule="evenodd" d="M14.81 8.62L22 9.24L16.55 13.97L18.18 21L12 17.27L5.82 21L7.46 13.97L2 9.24L9.19 8.63L12 2L14.81 8.62ZM12 6.1V15.4L15.77 17.68L14.77 13.4L18.09 10.52L13.71 10.14L12 6.1Z" fill="white"/>
</mask>
<g mask="url(#mask0)">
<path fill-rule="evenodd" clip-rule="evenodd" d="M0 0H24V24H0V0Z" fill="#FFC519"/>
</g>
</svg>
