<svg width="91" height="91" viewBox="0 0 91 91" fill="none" xmlns="http://www.w3.org/2000/svg">
<mask id="path-1-inside-1" fill="white">
<path d="M91 45.5C91 70.629 70.629 91 45.5 91C20.371 91 0 70.629 0 45.5C0 20.371 20.371 0 45.5 0C70.629 0 91 20.371 91 45.5ZM25.0066 45.5C25.0066 56.8182 34.1818 65.9934 45.5 65.9934C56.8182 65.9934 65.9934 56.8182 65.9934 45.5C65.9934 34.1818 56.8182 25.0066 45.5 25.0066C34.1818 25.0066 25.0066 34.1818 25.0066 45.5Z"/>
</mask>
<path d="M91 45.5C91 70.629 70.629 91 45.5 91C20.371 91 0 70.629 0 45.5C0 20.371 20.371 0 45.5 0C70.629 0 91 20.371 91 45.5ZM25.0066 45.5C25.0066 56.8182 34.1818 65.9934 45.5 65.9934C56.8182 65.9934 65.9934 56.8182 65.9934 45.5C65.9934 34.1818 56.8182 25.0066 45.5 25.0066C34.1818 25.0066 25.0066 34.1818 25.0066 45.5Z" stroke="#ECEEEE" stroke-width="40" mask="url(#path-1-inside-1)"/>
</svg>
