<svg width="17" height="22" viewBox="0 0 17 22" fill="none" xmlns="http://www.w3.org/2000/svg">
<path fill-rule="evenodd" clip-rule="evenodd" d="M8.52009 0V3C12.7633 3 16.2001 6.58 16.2001 11C16.2001 12.57 15.7585 14.03 15.0097 15.26L13.6081 13.8C14.0401 12.97 14.2801 12.01 14.2801 11C14.2801 7.69 11.6977 5 8.52009 5V8L4.68009 4L8.52009 0ZM2.76009 11C2.76009 14.31 5.34249 17 8.52009 17V14L12.3601 18L8.52009 22V19C4.27689 19 0.840088 15.42 0.840088 11C0.840088 9.43 1.28169 7.97 2.03049 6.74L3.43209 8.2C3.00009 9.03 2.76009 9.99 2.76009 11Z" fill="#1A1625"/>
</svg>
