<svg width="24" height="24" viewBox="0 0 24 24" fill="none" xmlns="http://www.w3.org/2000/svg">
<path fill-rule="evenodd" clip-rule="evenodd" d="M16 8C16 10.21 14.21 12 12 12C9.79 12 8 10.21 8 8C8 5.79 9.79 4 12 4C14.21 4 16 5.79 16 8ZM14 8C14 6.9 13.1 6 12 6C10.9 6 10 6.9 10 8C10 9.1 10.9 10 12 10C13.1 10 14 9.1 14 8ZM12 13C9.33 13 4 14.34 4 17V20H20V17C20 14.34 14.67 13 12 13ZM6 17.01V18H18V17C17.8 16.29 14.7 15 12 15C9.3 15 6.2 16.29 6 17.01Z" fill="#4F58B8"/>
<mask id="mask0" mask-type="alpha" maskUnits="userSpaceOnUse" x="4" y="4" width="16" height="16">
<path fill-rule="evenodd" clip-rule="evenodd" d="M16 8C16 10.21 14.21 12 12 12C9.79 12 8 10.21 8 8C8 5.79 9.79 4 12 4C14.21 4 16 5.79 16 8ZM14 8C14 6.9 13.1 6 12 6C10.9 6 10 6.9 10 8C10 9.1 10.9 10 12 10C13.1 10 14 9.1 14 8ZM12 13C9.33 13 4 14.34 4 17V20H20V17C20 14.34 14.67 13 12 13ZM6 17.01V18H18V17C17.8 16.29 14.7 15 12 15C9.3 15 6.2 16.29 6 17.01Z" fill="white"/>
</mask>
<g mask="url(#mask0)">
<path fill-rule="evenodd" clip-rule="evenodd" d="M0 0H24V24H0V0Z" fill="#4F58B8"/>
</g>
</svg>
